<svg xmlns="http://www.w3.org/2000/svg" width="108" height="24" fill="none"><g fill="#080c09" clip-path="url(#a)"><path d="M10.842.052C17.42-.56 23.247 4.277 23.854 10.855c.607 6.577-4.237 12.4-10.815 13C6.47 24.455.657 19.619.05 13.051S4.275.665 10.842.052m2.385 22.538c5.872-.705 10.059-6.038 9.35-11.91C21.87 4.81 16.534.627 10.663 1.339 4.797 2.049.618 7.379 1.326 13.245c.708 5.867 6.035 10.049 11.901 9.345"/><path d="m16.63 5.734 1.376-.01a958 958 0 0 1 .006 11.912l-1.422.018-.003-7.46-.006-2.043c-.795 1.508-1.697 2.957-2.556 4.429-.545.932-1.051 2.002-1.725 2.84a.9.9 0 0 1-.503.026.7.7 0 0 1-.211-.089c-.364-.29-3.783-6.297-4.33-7.208.141 1.08.053 2.259.052 3.35l-.004 6.126-1.454.005c.045-3.964-.026-7.931.012-11.897l1.584.009c.704 1.26 1.46 2.492 2.19 3.737.776 1.322 1.532 2.66 2.357 3.954.839-1.532 1.777-3.017 2.679-4.514.639-1.06 1.243-2.176 1.958-3.185M89.47 8.563c.281-.019.57-.026.85-.021 1.05.018 2.12.58 2.839 1.323.894.926 1.31 2.218 1.28 3.493-.03 1.297-.517 2.53-1.471 3.42a4.26 4.26 0 0 1-3.09 1.166c-1.327-.05-2.208-.61-3.098-1.56-.034.544-.024 1.095-.03 1.64q.01 1.624-.004 3.249a7 7 0 0 1-1.518-.014c.083-1.677.01-3.394.01-5.075 0-2.5.04-5.007-.016-7.507l1.502-.006c-.03.558-.023 1.121-.03 1.68.813-1.016 1.492-1.505 2.776-1.788m.651 8.04c.934-.176 1.657-.557 2.205-1.363a3.6 3.6 0 0 0 .534-2.73c-.168-.842-.666-1.638-1.4-2.098-.576-.362-1.2-.462-1.867-.443-.926.175-1.677.505-2.231 1.311-.523.76-.748 1.843-.572 2.746.168.868.682 1.63 1.426 2.108.592.373 1.218.48 1.905.468M61.442 4.795c.244.252.32.916.466 1.271-1.576.662-3.861.526-5.129 1.737-.758.724-.939 1.725-.955 2.724.678-.838 1.422-1.517 2.534-1.703 1.124-.188 2.315.03 3.236.716.99.737 1.541 1.805 1.707 3.016a5 5 0 0 1-1.01 3.813c-.618.686-1.337 1.193-2.243 1.414-1.147.282-2.456.136-3.466-.491-1.153-.716-1.816-1.897-2.104-3.197-.43-1.942-.345-4.844.774-6.567.987-1.52 2.478-1.822 4.134-2.216.688-.163 1.366-.365 2.055-.517M58.82 16.61c.976-.144 1.702-.378 2.309-1.216.595-.822.787-1.86.602-2.849-.149-.797-.569-1.527-1.253-1.978a2.8 2.8 0 0 0-1.408-.46c-.95.107-1.731.303-2.363 1.087-.593.735-.847 1.728-.716 2.66.12.85.584 1.669 1.282 2.175.472.343.98.493 1.547.581M40.084 5.4c.555-.055 1.132-.029 1.69-.033-.075 4.086.015 8.183-.008 12.271l-1.472-.015.003-7.227c-.005-.828-.022-1.658.029-2.485-1.356 2.504-2.58 5.119-4.065 7.547l-.956-.005c-1.462-2.398-2.68-4.983-4.033-7.447.053 1.13.018 2.278.018 3.41l.004 6.223c-.491-.013-.98.019-1.47-.004V10.19c.001-1.6-.03-3.21.057-4.809l1.637.001c.466.798.861 1.653 1.284 2.475.98 1.906 1.952 3.834 3.01 5.698 1.555-2.637 2.786-5.477 4.272-8.155M47.652 8.566q.336-.018.674-.026c1.178-.019 2.351.302 3.2 1.156 1.137 1.142 1.25 2.58 1.25 4.102-2.452.03-4.908-.002-7.36.008.076.405.152.792.344 1.162a3.09 3.09 0 0 0 1.845 1.533c.954.29 1.913.12 2.77-.353.288-.196.551-.425.819-.646.385.22.774.404 1.181.58-.605.816-1.385 1.41-2.372 1.681-1.264.346-2.805.21-3.943-.46a4.27 4.27 0 0 1-1.985-2.684c-.336-1.355-.148-2.837.587-4.03.709-1.148 1.703-1.716 2.99-2.023m-2.22 4.086q1.821-.015 3.643-.01l2.27.001c-.22-.932-.443-1.795-1.31-2.34-.634-.4-1.403-.46-2.133-.4-.789.182-1.453.541-1.903 1.236-.305.47-.44.976-.567 1.513M78.154 8.563q.33-.016.661-.022c1.175-.013 2.35.336 3.188 1.193 1.103 1.128 1.205 2.568 1.2 4.057-2.442.038-4.89.008-7.333.014.033.445.111.829.32 1.23.384.742 1.023 1.233 1.82 1.466 1.066.313 2.036.082 2.978-.441.23-.158.435-.352.644-.538.387.209.78.377 1.188.54-.639.84-1.433 1.448-2.465 1.71-1.283.324-2.756.2-3.9-.491-1.017-.614-1.713-1.625-1.98-2.777-.305-1.315-.093-2.828.642-3.969.736-1.14 1.74-1.692 3.037-1.972m-2.297 4.086c1.163-.004 2.327-.02 3.49-.007l2.463-.002c-.255-.958-.523-1.891-1.45-2.418-.574-.327-1.273-.382-1.921-.317-.77.128-1.42.417-1.897 1.06-.378.509-.54 1.078-.685 1.684M103.513 8.692c1.487-.07 2.996-.019 4.486-.014-.076 2.978-.008 5.976-.009 8.957l-1.533-.017-.001-3.06c-.732-.004-1.696-.147-2.394.019-.218.052-.257.161-.379.33-.517.918-1.092 1.803-1.611 2.721q-.869.02-1.738.005c.567-1.065 1.337-2.419 2.087-3.34a6 6 0 0 1-.265-.137c-.654-.362-1.155-.943-1.346-1.671-.2-.76-.091-1.627.315-2.301.548-.91 1.406-1.26 2.388-1.492m1.571 4.582c.452-.004.914.01 1.365-.022a198 198 0 0 1 .008-3.178c-.898-.003-1.809-.027-2.707.022-.566.178-1.008.369-1.314.915a1.57 1.57 0 0 0-.12 1.235c.132.382.439.65.799.813.609.275 1.317.22 1.969.215M66.412 8.774c1.94-.07 3.898-.024 5.84-.028l-.009 8.887c-.484-.007-.97-.027-1.45.039l-.007-7.529-.823.034c-.735-.037-1.486.012-2.222.029-.02 1.791-.028 5.505-1.282 6.83-.626.662-1.333.73-2.188.736a24 24 0 0 0-.065-1.394c.223-.02.46-.036.677-.091 1.35-.34 1.374-4.803 1.408-5.929.014-.438-.084-1.227.12-1.584M97.888 8.708l.198-.011c.024.032.058.059.073.097.066.174-.002 7.938-.002 8.835l-1.301.01-.096-.02c-.208-.376 0-7.774-.065-8.893.398.005.796-.008 1.193-.018M96.668 5.357l1.497-.004c-.016.53-.004 1.062.004 1.594l-1.541.011q.033-.8.04-1.601"/></g><defs><clipPath id="a"><path fill="#fff" d="M0 0h108v23.905H0z"/></clipPath></defs></svg>