<svg xmlns="http://www.w3.org/2000/svg" width="84" height="36" fill="none"><g fill="#fff" clip-path="url(#a)"><path d="M9.632 9.31a8.964 8.964 0 1 1 1.665 17.85A8.964 8.964 0 0 1 9.632 9.31m1.788 16.903a8.028 8.028 0 1 0-1.914-15.94 8.028 8.028 0 0 0 1.914 15.94"/><path d="m13.973 13.57 1.032-.007q.03 4.467.005 8.935l-1.067.013-.002-5.595-.005-1.533c-.596 1.131-1.272 2.219-1.917 3.322-.409.7-.788 1.502-1.294 2.131a.67.67 0 0 1-.377.019.6.6 0 0 1-.158-.067c-.273-.218-2.837-4.723-3.247-5.406.105.81.04 1.694.039 2.512l-.003 4.595-1.091.004c.033-2.973-.02-5.949.009-8.922l1.188.006c.528.944 1.095 1.869 1.643 2.802.582.992 1.149 1.996 1.767 2.966.63-1.149 1.333-2.263 2.01-3.385.478-.795.931-1.633 1.468-2.39M68.603 15.692c.21-.014.426-.02.637-.016.787.014 1.59.435 2.129.993.67.695.982 1.664.96 2.62-.023.972-.387 1.897-1.103 2.564a3.2 3.2 0 0 1-2.318.875c-.995-.037-1.655-.457-2.323-1.17-.026.408-.018.821-.022 1.23q.006 1.218-.004 2.437c-.378.037-.76.034-1.138-.01.062-1.258.007-2.546.007-3.807 0-1.875.03-3.755-.012-5.63l1.127-.005c-.023.419-.017.841-.023 1.26.61-.761 1.119-1.128 2.083-1.34m.488 6.03c.7-.131 1.243-.417 1.654-1.022.402-.601.546-1.34.4-2.048-.126-.631-.5-1.228-1.05-1.573-.433-.271-.9-.346-1.4-.332-.695.131-1.258.378-1.674.983a2.86 2.86 0 0 0-.429 2.06 2.42 2.42 0 0 0 1.07 1.581c.444.28.913.36 1.429.351M47.581 12.867c.184.189.24.687.35.953-1.182.497-2.896.395-3.847 1.303-.568.543-.704 1.294-.716 2.043.509-.629 1.066-1.138 1.9-1.277.843-.141 1.736.022 2.428.536.742.553 1.156 1.355 1.28 2.262a3.75 3.75 0 0 1-.758 2.86c-.463.515-1.003.895-1.682 1.061-.86.211-1.842.102-2.6-.368-.864-.537-1.362-1.423-1.577-2.398-.323-1.456-.26-3.633.58-4.926.74-1.14 1.858-1.366 3.1-1.661.516-.123 1.025-.274 1.542-.388m-1.965 8.862c.732-.109 1.276-.284 1.731-.913.447-.617.59-1.395.452-2.136-.111-.599-.426-1.145-.94-1.484a2.1 2.1 0 0 0-1.056-.345c-.712.08-1.298.227-1.772.815a2.64 2.64 0 0 0-.537 1.995c.09.638.438 1.252.962 1.632.354.257.734.37 1.16.436M31.563 13.32c.416-.04.849-.02 1.268-.024-.057 3.064.01 6.138-.007 9.203l-1.104-.01.002-5.421c-.003-.621-.016-1.244.022-1.864-1.017 1.878-1.934 3.839-3.048 5.66l-.717-.004c-1.097-1.798-2.01-3.736-3.025-5.585.04.848.013 1.708.014 2.557l.002 4.668c-.368-.01-.734.014-1.103-.003v-5.584c.002-1.2-.022-2.408.044-3.606h1.227c.35.599.646 1.24.963 1.856.736 1.43 1.464 2.876 2.257 4.274 1.167-1.978 2.09-4.108 3.205-6.116M37.239 15.695q.253-.014.505-.02c.884-.014 1.764.227 2.4.867.853.856.938 1.936.938 3.076-1.84.024-3.68-.001-5.52.007.057.303.114.594.258.871.288.554.787.969 1.384 1.15.715.217 1.434.09 2.077-.265.216-.147.413-.318.614-.484.289.165.581.302.886.434-.454.612-1.039 1.059-1.779 1.261-.948.26-2.104.158-2.957-.344a3.2 3.2 0 0 1-1.489-2.014c-.252-1.016-.111-2.128.44-3.022.532-.861 1.278-1.287 2.243-1.517m-1.665 3.064q1.366-.01 2.733-.008l1.702.002c-.166-.7-.332-1.347-.982-1.756-.476-.3-1.053-.345-1.6-.3-.592.137-1.09.406-1.428.927-.228.353-.33.733-.425 1.135M60.116 15.693q.247-.013.495-.017c.882-.01 1.762.252 2.391.895.828.846.904 1.926.9 3.043-1.831.028-3.667.006-5.5.01.025.334.084.622.24.922.289.557.767.925 1.365 1.1.8.235 1.528.061 2.234-.33.173-.12.326-.265.483-.404.29.157.585.283.89.405-.478.63-1.074 1.086-1.848 1.282-.962.244-2.066.15-2.925-.368a3.28 3.28 0 0 1-1.485-2.083c-.229-.986-.07-2.12.482-2.976.551-.855 1.306-1.27 2.278-1.48m-1.723 3.064c.872-.003 1.745-.015 2.617-.005l1.848-.001c-.192-.719-.393-1.419-1.088-1.814-.43-.245-.955-.287-1.441-.238-.577.096-1.064.313-1.422.795-.284.382-.405.808-.514 1.263M79.135 15.79c1.115-.053 2.247-.015 3.365-.011-.057 2.233-.006 4.482-.007 6.717l-1.15-.012v-2.295c-.55-.003-1.272-.11-1.796.014-.163.039-.192.121-.284.248-.388.688-.82 1.352-1.209 2.04q-.651.016-1.303.004c.425-.798 1.002-1.814 1.565-2.505a5 5 0 0 1-.198-.103c-.491-.27-.867-.707-1.01-1.253a2.3 2.3 0 0 1 .236-1.726c.411-.682 1.055-.945 1.791-1.118m1.178 3.436c.34-.003.686.008 1.024-.017q-.006-1.191.007-2.383c-.674-.002-1.358-.02-2.03.017-.425.133-.757.276-.986.685a1.18 1.18 0 0 0-.09.927c.099.286.328.487.599.61.456.205.987.165 1.476.16M51.31 15.851c1.455-.052 2.923-.018 4.38-.02l-.007 6.665c-.363-.006-.727-.021-1.087.028l-.005-5.646-.618.025c-.551-.027-1.114.01-1.667.022-.015 1.344-.02 4.129-.961 5.123-.47.496-1 .547-1.64.552a18 18 0 0 0-.05-1.046c.168-.015.345-.027.508-.068 1.013-.256 1.03-3.603 1.056-4.447.01-.329-.063-.92.09-1.188M74.916 15.802l.15-.009c.017.024.042.044.053.073.05.13-.001 5.953 0 6.626l-.977.007-.072-.014c-.156-.283 0-5.831-.048-6.67.298.004.596-.006.894-.013M74 13.288l1.124-.003c-.012.398-.003.797.002 1.195l-1.155.009q.024-.6.03-1.201"/></g><defs><clipPath id="a"><path fill="#fff" d="M1.5 9.27h81V27.2h-81z"/></clipPath></defs></svg>