<svg xmlns="http://www.w3.org/2000/svg" width="81" height="18" fill="none"><g fill="#fff" clip-path="url(#a)"><path d="M8.132.04a8.964 8.964 0 1 1 1.665 17.85A8.964 8.964 0 0 1 8.132.04M9.92 16.941a8.028 8.028 0 1 0-1.914-15.94 8.028 8.028 0 0 0 1.914 15.94"/><path d="m12.473 4.3 1.032-.007q.03 4.467.005 8.934l-1.067.014-.002-5.596-.005-1.532c-.596 1.13-1.272 2.218-1.917 3.322-.409.7-.788 1.502-1.294 2.13a.67.67 0 0 1-.377.02.6.6 0 0 1-.158-.067c-.273-.218-2.837-4.723-3.247-5.406.105.81.04 1.694.039 2.512l-.003 4.595-1.091.003c.033-2.973-.02-5.948.009-8.922l1.188.006c.528.945 1.095 1.87 1.643 2.803.582.992 1.149 1.996 1.767 2.966.63-1.15 1.333-2.263 2.01-3.386.478-.795.931-1.632 1.468-2.389M67.103 6.422c.21-.014.426-.02.637-.016.787.014 1.59.435 2.129.992.67.695.982 1.664.96 2.62-.023.973-.387 1.897-1.103 2.565a3.2 3.2 0 0 1-2.318.875c-.995-.038-1.655-.457-2.323-1.17-.026.408-.018.82-.022 1.23q.006 1.218-.004 2.436c-.378.038-.76.034-1.138-.01.062-1.258.007-2.545.008-3.806 0-1.876.03-3.756-.013-5.63l1.127-.005c-.023.418-.017.841-.023 1.26.61-.762 1.119-1.129 2.083-1.341m.488 6.03c.7-.132 1.243-.418 1.654-1.022.402-.602.546-1.34.4-2.048-.126-.632-.5-1.228-1.05-1.573-.433-.272-.9-.347-1.4-.333-.695.132-1.258.379-1.674.984a2.86 2.86 0 0 0-.429 2.06 2.43 2.43 0 0 0 1.07 1.58c.444.28.913.36 1.429.351M46.081 3.597c.184.188.24.686.35.953-1.182.496-2.896.394-3.847 1.302-.568.543-.704 1.294-.716 2.043.509-.628 1.066-1.137 1.9-1.277.843-.14 1.736.022 2.428.537.742.553 1.156 1.354 1.28 2.262a3.75 3.75 0 0 1-.758 2.86c-.463.514-1.003.894-1.682 1.06-.86.212-1.842.102-2.6-.368-.864-.537-1.362-1.423-1.577-2.397-.323-1.457-.26-3.633.58-4.926.74-1.14 1.858-1.366 3.1-1.662.516-.122 1.025-.273 1.542-.387m-1.965 8.861c.732-.108 1.276-.284 1.731-.913.447-.616.59-1.395.452-2.136-.111-.598-.426-1.145-.94-1.484a2.1 2.1 0 0 0-1.056-.344c-.712.08-1.298.227-1.772.814a2.64 2.64 0 0 0-.537 1.996c.09.637.438 1.251.962 1.631.354.257.734.37 1.16.436M30.063 4.05c.416-.041.849-.021 1.268-.024-.057 3.064.01 6.137-.007 9.203l-1.104-.011.002-5.42c-.003-.622-.016-1.244.022-1.864-1.017 1.878-1.934 3.838-3.048 5.66l-.717-.004c-1.097-1.799-2.01-3.737-3.025-5.585.04.847.013 1.708.014 2.557l.002 4.667c-.368-.01-.734.015-1.103-.002V7.643c.002-1.2-.022-2.408.044-3.607h1.227c.35.6.646 1.24.963 1.857.736 1.43 1.464 2.875 2.257 4.273 1.167-1.977 2.09-4.107 3.205-6.116M35.739 6.424q.253-.013.505-.02c.884-.014 1.764.227 2.4.868.853.856.938 1.935.938 3.076-1.84.023-3.68-.002-5.52.006.057.304.114.594.258.872.288.554.787.968 1.384 1.15.715.216 1.434.09 2.077-.265.216-.147.413-.319.614-.485.289.165.581.303.886.435-.454.612-1.039 1.058-1.779 1.26-.948.26-2.104.159-2.957-.344a3.2 3.2 0 0 1-1.489-2.013c-.252-1.017-.111-2.128.44-3.022.532-.862 1.278-1.288 2.243-1.518m-1.665 3.065q1.366-.01 2.733-.008l1.702.001c-.166-.699-.332-1.347-.982-1.756-.476-.299-1.053-.345-1.6-.299-.592.137-1.09.406-1.428.927-.228.353-.33.732-.425 1.135M58.616 6.422q.247-.012.495-.016c.882-.01 1.762.251 2.391.894.828.847.904 1.927.9 3.044-1.831.027-3.667.005-5.5.01.025.334.084.621.24.922.289.556.767.925 1.365 1.1.8.235 1.528.061 2.234-.331.173-.119.326-.264.483-.403.29.156.585.283.89.404-.478.63-1.074 1.086-1.848 1.282-.962.244-2.066.15-2.925-.367a3.28 3.28 0 0 1-1.485-2.083c-.229-.987-.07-2.121.482-2.977.551-.855 1.306-1.269 2.278-1.479m-1.723 3.064c.872-.002 1.745-.014 2.617-.005h1.848c-.192-.72-.393-1.42-1.088-1.815-.43-.245-.955-.286-1.441-.237-.577.095-1.064.312-1.422.794-.284.382-.405.809-.514 1.263M77.635 6.52c1.115-.053 2.247-.015 3.365-.012-.057 2.234-.006 4.482-.007 6.718l-1.15-.013V10.92c-.55-.004-1.272-.111-1.796.013-.163.04-.192.122-.284.249-.388.688-.82 1.352-1.209 2.04q-.651.015-1.303.003c.425-.798 1.002-1.814 1.565-2.505a5 5 0 0 1-.198-.102c-.491-.271-.867-.707-1.01-1.254a2.3 2.3 0 0 1 .236-1.725c.411-.683 1.055-.945 1.791-1.119m1.178 3.435c.34-.002.686.008 1.024-.016q-.006-1.193.007-2.383c-.674-.003-1.358-.02-2.03.016-.425.133-.757.277-.986.686a1.18 1.18 0 0 0-.09.927c.099.286.328.487.599.609.456.206.987.166 1.476.161M49.81 6.58c1.455-.052 2.923-.018 4.38-.02l-.007 6.665c-.363-.005-.727-.02-1.087.029l-.005-5.646-.618.025c-.551-.028-1.114.009-1.667.022-.015 1.343-.02 4.129-.961 5.123-.47.495-1 .546-1.64.551-.006-.35-.024-.696-.05-1.046.168-.015.345-.026.508-.068 1.013-.255 1.03-3.602 1.056-4.446.01-.33-.063-.92.09-1.188M73.416 6.531l.15-.009c.017.025.042.045.053.073.05.131-.001 5.954 0 6.627l-.977.007-.072-.015c-.156-.282 0-5.83-.048-6.67.298.004.596-.006.894-.013M72.5 4.018l1.124-.004c-.012.399-.003.797.002 1.196l-1.155.009q.024-.6.03-1.201"/></g><defs><clipPath id="a"><path fill="#fff" d="M0 0h81v17.929H0z"/></clipPath></defs></svg>