<svg xmlns="http://www.w3.org/2000/svg" width="112" height="48" fill="none"><g fill="#080c09" clip-path="url(#a)"><path d="M12.842 12.414c6.577-.614 12.405 4.224 13.012 10.802s-4.237 12.4-10.815 13c-6.569.6-12.382-4.236-12.988-10.804s4.224-12.385 10.791-12.998m2.385 22.537c5.872-.705 10.059-6.038 9.35-11.909s-6.044-10.055-11.915-9.343c-5.865.712-10.044 6.042-9.336 11.907.708 5.867 6.035 10.05 11.901 9.345"/><path d="m18.631 18.095 1.376-.01q.04 5.956.006 11.913l-1.423.018-.002-7.461-.006-2.043c-.795 1.508-1.697 2.958-2.556 4.429-.545.933-1.051 2.003-1.725 2.841a.9.9 0 0 1-.503.025.7.7 0 0 1-.211-.089c-.364-.29-3.783-6.297-4.33-7.207.141 1.08.053 2.258.052 3.349l-.004 6.126-1.454.005c.045-3.964-.026-7.931.012-11.896l1.584.008c.704 1.26 1.46 2.492 2.19 3.737.776 1.323 1.532 2.661 2.357 3.954.839-1.532 1.777-3.017 2.679-4.513.639-1.06 1.243-2.177 1.958-3.186M91.47 20.924c.281-.019.57-.026.85-.021 1.05.019 2.12.58 2.839 1.323.894.926 1.31 2.219 1.28 3.493-.03 1.297-.517 2.53-1.471 3.42a4.26 4.26 0 0 1-3.09 1.166c-1.327-.05-2.208-.609-3.098-1.56-.034.545-.024 1.095-.03 1.64q.01 1.624-.004 3.25a7 7 0 0 1-1.518-.015c.083-1.676.01-3.393.01-5.074 0-2.501.04-5.008-.016-7.508l1.502-.006c-.03.558-.023 1.122-.03 1.68.813-1.015 1.492-1.505 2.776-1.788m.651 8.04c.934-.176 1.657-.556 2.205-1.362a3.6 3.6 0 0 0 .534-2.731c-.168-.842-.666-1.638-1.4-2.098-.576-.362-1.2-.462-1.867-.443-.926.175-1.677.505-2.231 1.312-.523.76-.748 1.842-.572 2.746.168.868.682 1.63 1.426 2.108.592.372 1.218.48 1.905.468M63.442 17.157c.244.251.32.915.466 1.27-1.576.662-3.861.526-5.129 1.737-.758.724-.939 1.726-.955 2.724.678-.838 1.422-1.516 2.534-1.702 1.124-.188 2.315.03 3.236.715.99.737 1.541 1.806 1.707 3.016a5 5 0 0 1-1.01 3.813c-.618.686-1.337 1.193-2.243 1.415-1.147.281-2.456.135-3.466-.492-1.153-.716-1.816-1.897-2.104-3.196-.43-1.942-.345-4.844.774-6.568.987-1.52 2.478-1.822 4.134-2.215.688-.164 1.366-.365 2.055-.517M60.82 28.972c.976-.145 1.702-.379 2.309-1.217.595-.822.787-1.86.602-2.848-.149-.798-.569-1.527-1.253-1.979a2.8 2.8 0 0 0-1.408-.46c-.95.107-1.731.304-2.363 1.087-.593.735-.847 1.729-.716 2.66.12.85.584 1.669 1.282 2.176.472.342.98.493 1.547.58M42.084 17.762c.555-.056 1.132-.03 1.69-.033-.075 4.085.015 8.183-.008 12.27l-1.472-.014.003-7.228c-.005-.828-.022-1.658.029-2.485-1.356 2.505-2.58 5.119-4.065 7.547l-.956-.005c-1.462-2.398-2.68-4.982-4.033-7.447.053 1.13.017 2.278.018 3.41L33.294 30c-.491-.013-.98.02-1.47-.004v-7.445c.001-1.6-.03-3.21.057-4.808h1.637c.466.798.861 1.653 1.284 2.475.98 1.907 1.952 3.834 3.01 5.698 1.555-2.636 2.786-5.476 4.272-8.154M49.652 20.927q.336-.018.674-.025c1.178-.02 2.351.302 3.2 1.155 1.137 1.142 1.25 2.581 1.25 4.102-2.452.031-4.908-.002-7.36.009.076.404.152.792.344 1.161a3.09 3.09 0 0 0 1.845 1.534c.954.288 1.913.12 2.77-.354.288-.195.551-.424.819-.645.385.22.774.403 1.181.579-.605.816-1.385 1.411-2.372 1.681-1.264.346-2.805.21-3.943-.46a4.27 4.27 0 0 1-1.985-2.684c-.336-1.355-.148-2.837.587-4.029.709-1.149 1.703-1.716 2.99-2.024m-2.22 4.086q1.821-.015 3.643-.01l2.27.002c-.22-.932-.443-1.796-1.31-2.341-.634-.4-1.403-.46-2.133-.4-.789.183-1.453.541-1.903 1.236-.305.47-.44.977-.567 1.513M80.154 20.924q.33-.016.661-.022c1.175-.012 2.35.336 3.188 1.193 1.103 1.129 1.205 2.569 1.2 4.058-2.442.037-4.89.008-7.333.013.033.446.111.83.32 1.23.384.742 1.023 1.233 1.82 1.466 1.066.314 2.036.082 2.978-.44.23-.16.435-.353.644-.538.387.208.78.377 1.188.54-.639.838-1.433 1.447-2.465 1.708-1.283.326-2.756.201-3.9-.49-1.017-.613-1.713-1.625-1.98-2.776-.305-1.316-.093-2.829.642-3.97.736-1.14 1.74-1.691 3.037-1.972m-2.297 4.086c1.163-.003 2.327-.02 3.49-.007l2.463-.001c-.255-.958-.523-1.892-1.45-2.419-.574-.326-1.273-.382-1.921-.316-.77.127-1.42.416-1.897 1.059-.378.51-.54 1.078-.685 1.684M105.514 21.054c1.487-.07 2.996-.02 4.486-.015-.076 2.978-.008 5.976-.009 8.957l-1.533-.017-.001-3.06c-.732-.004-1.696-.147-2.394.019-.218.052-.257.162-.379.331-.517.917-1.092 1.803-1.611 2.72q-.869.02-1.738.005c.567-1.064 1.337-2.419 2.087-3.34a6 6 0 0 1-.265-.137c-.654-.361-1.155-.942-1.346-1.671-.2-.76-.091-1.627.315-2.301.548-.91 1.406-1.26 2.388-1.491m1.571 4.581c.452-.004.914.01 1.365-.022q-.009-1.59.008-3.177c-.898-.004-1.809-.028-2.707.021-.566.178-1.008.37-1.314.915a1.57 1.57 0 0 0-.12 1.236c.132.381.439.649.799.812.609.275 1.317.221 1.969.215M68.413 21.136c1.94-.07 3.898-.025 5.84-.029l-.009 8.888c-.484-.008-.97-.028-1.45.038l-.007-7.528-.823.033c-.735-.036-1.486.012-2.222.03-.02 1.79-.028 5.505-1.282 6.83-.626.661-1.333.729-2.188.736a24 24 0 0 0-.065-1.395c.223-.02.46-.036.677-.09 1.35-.341 1.374-4.804 1.408-5.93.013-.438-.084-1.226.12-1.583M99.888 21.07l.198-.012c.024.032.058.06.073.097.066.175-.002 7.938-.002 8.836L98.856 30l-.096-.02c-.208-.376 0-7.774-.065-8.893.398.005.796-.008 1.193-.017M98.668 17.718l1.497-.004c-.016.531-.004 1.063.004 1.594l-1.541.012a48 48 0 0 0 .04-1.602"/></g><defs><clipPath id="a"><path fill="#fff" d="M2 12.361h108v23.905H2z"/></clipPath></defs></svg>